<svg width="779" height="509" viewBox="0 0 779 509" fill="none" xmlns="http://www.w3.org/2000/svg">
<path id="Vector" d="M495.607 427.704L490.859 428.153L488.267 427.397L486.672 426.046L483.391 422.278L482.369 421.641L480.594 421.508L477.888 424.122L471.122 424.336L467.816 425.247L464.497 427.958L463.578 428.351L462.735 428.398L461.906 428.655L461.063 429.613L460.373 431.669L460.297 434.062L460.642 436.403L461.229 438.338L461.779 439.16L462.696 440.529L464.458 441.361L466.194 441.703L467.611 442.382L468.67 443.646L469.385 445.037L470.521 449.253L470.611 450.499L470.42 453.102L470.637 454.21L471.327 454.781L473.268 455.14L473.957 455.916L474.583 458.09L474.749 459.974L474.558 461.832L474.111 463.921L472.668 465.411L472.451 466.519L473.727 469.424L474.251 470.173L475.962 471.799L476.345 472.796L476.128 474.123L475.502 474.507L474.724 474.788L474.073 475.783L472.694 479.886L470.792 484.063L469.362 486.325L468.596 486.75L467.69 486.52L457.133 488.977L455.537 489.776L452.243 492.003L449.448 493.363L448.082 493.534L446.423 493.211L444.699 493.194L441.623 494.8L439.862 495.165L437.475 494.171L433.849 490.133L431.091 489.079L429.827 489.572L425.218 492.7L420.929 493.023L419.538 493.507L418.019 494.629L417.138 495.513L416.296 496.091L414.905 496.295L413.731 495.963L411.152 494.434L409.939 494.009L399.038 493.253L397.365 493.822L396.407 495.377L395.603 497.195L394.518 498.546L393.305 499.021L392.347 498.919L391.377 498.613L390.094 498.493L386.928 499.046L366.209 505.788L363.311 506L360.452 505.541L358.053 504.089L352.793 496.837L350.419 494.823L349.922 494.589L345.313 492.418L344.828 491.857L343.87 490.225L343.501 489.8L342.875 489.792L340.845 490.225L320.664 481.62L316.885 479.271L315.226 479.068L314 479.323L311.422 480.242L306.622 480.582L306.239 482.777L306.571 485.644L305.512 488.033L303.061 487.922L300.368 485.507L296.182 480.08L293.769 477.902L291.509 476.821L289.083 476.463H286.237L286.99 474.82L282.688 474.888L281.004 474.471L279.101 472.701L279.011 472.096L279.318 470.274L279.178 469.456L278.705 468.902L277.531 468.152L277.084 467.667L276.421 466.713L275.783 466.065L275.272 465.299L274.915 463.944L274.519 459.376L272.987 455.053L270.422 452.724L266.86 454.115L264.128 454.729L261.613 458.328L259.774 458.737L257.17 458.303L255.268 458.499L251.119 459.743L250.021 459.862L246.715 459.471L245.642 459.633L244.838 460.102L243.982 460.383L242.833 459.991L242.616 459.079L242.897 457.68L242.782 456.239L240.369 454.686L238.378 452.426L236.221 452.698L233.885 453.696L231.826 455.025L231.651 455.138L229.838 456.733L229.327 457.781L228.791 460.373L228.434 460.987L227.515 460.91L226.979 460.203L226.431 459.248L225.473 458.48L221.797 457.389L216.87 456.954L213.257 458.651L213.563 463.944L213.896 467.599L213.832 468.995L213.079 470.239L211.7 470.92L210.232 470.63L207.501 468.807L207.053 469.983L206.466 470.374L205.79 470.528L205.1 470.996L203.045 473.057L201.22 473.184L195.412 468.91L194.417 468.774L191.072 471.883L189.081 472.853L186.528 473.508L183.911 473.806L181.728 473.695L179.877 474.589L177.082 479.262L175.077 479.79L171.018 478.853L166.92 478.888L164.533 479.764L161.431 482.912L161.073 483.145L159.541 484.146L155.406 483.984L147.261 479.747L135.095 479.389L132.746 480.155L128.993 482.904L126.785 484.111L124.168 484.426L122.879 483.183L121.717 481.286L119.432 479.67L117.236 479.824L114.351 481.066L111.593 482.827L109.806 484.546L109.385 485.804L109.194 488.806L108.543 490.404L107.445 491.543L106.092 492.316L103.309 493.14L98.1272 493.744L73.6429 489.944L76.5918 487.631L77.0389 484.57L76.4132 481.116L76.1583 477.602L76.5542 476.59L77.9842 474.811L78.2903 474.036L78.1367 473.082L77.4222 471.404L77.2561 470.604L76.9313 459.067L76.8602 456.535L77.4598 453.797L77.5622 452.833L77.2812 451.715L76.1071 449.873L75.7112 448.935L75.5065 446.728L75.6214 444.351L76.0047 442.067L76.5918 440.171L77.205 439.603L79.1448 439.039L79.8217 438.616L80.205 437.792L81.0094 435.391L82.0989 433.631L83.7285 430.998L85.0812 427.151L84.9914 423.252L82.8082 419.766L81.493 419.145L78.5692 418.992L77.2164 418.384L76.4508 417.164L73.8079 410.926L72.4928 405.251L71.7146 403.288L71.14 402.619L69.6975 401.839L69.3329 401.429L69.1741 401.252L68.8545 399.996L68.9057 397.549L68.7145 396.383L67.3868 392.592L66.4676 388.774L66.2503 384.787L65.9568 383L64.9863 381.197L64.9477 381.171L64.8453 378.972L64.8275 378.882L64.5904 377.709L63.9135 376.876L62.5221 375.944L61.8202 375.897L59.9305 376.558L59.0624 376.584L58.092 375.824L57.671 374.698L57.3775 373.606L56.8291 372.935L55.5651 372.797L49.9358 373.051L49.1189 372.72L48.5705 372.029L48.1109 371.303L47.5489 370.813L43.8594 370.034L37.8467 366.954L36.6851 366.358L25.9748 358.632L23.3957 356.02L22.9957 355.331L21.481 352.727L19.8472 347.933L15.1748 344.413L3 327.891L5.36183 326.63L10.5065 326.535L12.7534 325.81L14.5407 323.444L16.5066 317.307L18.4088 314.81L20.2985 313.898L21.8435 313.556L23.2349 312.597L24.55 309.922L26.2349 303.786L26.6559 300.303L26.1576 297.789V297.762L25.2133 295.398L23.6433 293.468L19.8525 290.713L13.4575 284.713L12.9216 284.471L13.3561 281.129L14.8969 274.396L15.2959 272.651L15.8705 268.507L14.9899 266.201L18.2072 260.043L19.8535 258.471L19.9935 257.968L20.0321 257.446L19.9935 256.933L19.8535 256.43L18.015 254.965L16.3552 252.431L13.4188 245.273L12.9842 244.647L13.1754 244.012L13.5525 243.429L14.337 242.215L15.4098 241.222L18.5499 239.547L19.8525 238.432L21.7797 235.454L22.8902 234.492L24.5876 234.452L26.7834 234.792L27.6389 234.278L27.6744 234.224L28.3147 233.272L29.9997 232.105L33.3695 231.665L42.6758 234.187L46.4291 233.263L50.1823 231.665L51.6374 229.897L51.7335 229.648L52.4668 227.757L54.65 219.562L55.4157 217.429L56.2838 216.003L57.7264 215.131L61.1474 214.319L62.7561 213.686H62.7686L62.7812 213.678V213.652L64.4149 211.313L69.5982 206.389L70.249 205.083L71.1421 201.981L71.7553 200.794L72.802 199.859L74.8954 198.866L75.9034 198.119L78.4177 194.277L80.6897 188.706L81.9913 183.045L81.7855 180.896L81.5954 178.918L79.5407 177.999L73.4643 176.672L71.2685 175.302L69.5449 173.562L66.2774 169.093L63.2899 166.091L62.5242 164.947L62.1408 163.606L61.7575 160.51L61.3104 159.159L59.7529 156.869L50.9188 147.946L49.848 147.173L49.2338 146.729L47.2042 145.816L46.0039 145.675L43.6546 145.798L42.4805 145.36L41.7681 144.584L41.4714 144.261L40.0926 141.353L39.1608 140.32L38.0117 140L35.3438 140.145L34.0287 139.846L32.8546 138.95L31.1184 136.616L30.2629 135.733L26.165 133.776L24.4675 132.176L23.2934 128.925L20.9827 120.827L19.4764 117.7L19.374 116.859L19.5015 116.005L19.8462 115.164L19.9998 114.723L20.0509 114.282L19.9998 113.863L19.8462 113.454L19.4378 112.868L19.3103 112.234L19.4378 111.616L19.8462 111L19.8849 110.93L19.911 110.842L19.8849 110.755L19.8462 110.64L18.9019 108.533L18.787 104.617L17.9701 102.368L16.6936 101.124L13.0553 99.1081L11.5103 97.6655L10.3874 95.8698L9.40442 93.7816L8.61262 91.5524L8.0642 89.3221L8.03809 87.9004L8.49771 85.0465L8.37027 83.7167L5.16649 79.8589L3.54528 75.225L4.19606 71.4968L5.77863 67.5502L6.95275 62.278L7.1951 57.1405L7.56488 56.2725L8.79019 53.99L9.10984 53.2232L9.39084 50.5459L9.45456 45.5703L9.73556 43.4414L11.2419 41.1077L14.0247 39.9012L17.9231 39.2713L19.8452 38.961L22.5893 38.8816L23.9807 37.0974L24.925 34.6206L26.3551 32.4802L28.883 31.5745L31.4235 31.7521L33.6192 31.3165L35.0743 28.66L35.0618 27.1495L34.2574 23.5142L34.13 21.8335L34.3724 19.8946L35.6488 14.7979L35.4702 14.7885L35.2279 14.2464L35.0879 13.3302L35.254 12.2804L35.5475 12.0579L37.5521 9.72631L39.4282 6.63737L40.5135 5.48828L45.8075 3L72.3371 21.1764L76.8049 23.1413L82.4217 23.906L84.9193 25.0373L87.7188 26.3055L88.8418 31.5923L86.7359 36.8676L82.4217 39.264L79.7277 39.6275L74.8128 41.2425L72.2598 41.6154L69.7956 43.2388L68.4168 47.0976L65.4292 59.9715L65.4929 63.8501L67.0243 67.0947L70.1519 69.816L73.9563 70.7227L90.3825 69.2508L100.177 68.3733L103.891 66.7667L108.219 65.837L112.853 63.3445L124.052 61.7515L143.757 62.7773L157.097 70.1732L160.574 70.7582L162.459 71.0758L172.913 68.7348L175.645 69.2707L182.691 73.4199L225.881 84.3257L227.089 84.6308L248.991 83.5517L251.65 83.42L253.782 82.7619L260.663 77.5775L265.003 76.1672L269.178 76.6666L289.141 84.1659L294.556 86.1987L300.364 87.047L326.431 85.2001L340.996 90.443L357.017 91.6485L362.084 92.8843L366.168 95.3193L366.578 95.5638L370.816 98.8512L375.335 101.485L380.709 102.209L383.543 101.468L388.649 99.1875L390.506 98.8522L391.286 98.7112L396.851 99.0288L399.659 98.7415L401.944 97.5412L404.267 96.9813L407.062 95.7716L409.705 94.1431L411.632 92.2889L413.841 90.7125L421.444 90.4691L422.265 90.443L427.397 88.2086L430.27 83.4378L430.5 82.7974L434.584 78.5584L438.286 76.4274L444.108 68.9824L445.103 66.5442L446.277 64.5385L461.136 53.5669L462.042 50.9167L464.226 47.6094L468.783 42.4908L473.047 40.1655L483.017 37.5738L492.782 33.2585L495.477 32.8605L505.785 31.3374L530.287 27.7157L534.436 26.2491L536.913 25.9555L538.087 25.6181L540.544 24.0627L541.96 23.7159H547.52L551.936 22.3641L563.635 15.385L578.136 13.9079L581.339 11.8521L590.326 17.4575L603.335 20.0816L605.951 21.5483L608.964 21.2641L609.153 21.4114L611.172 22.9804L610.591 26.8737L613.189 29.8499L620.146 33.1812L621.614 34.5224L624.001 38.7396L625.354 39.7069L648.906 39.5021L656.183 37.1852L659.004 38.1974L661.455 43.4069L662.244 44.486L667.084 51.0964L675.19 49.0928L683.73 44.2499L690.598 43.4425V43.4602L693.534 48.4096L699.112 68.1352L703.287 71.4403L728.785 83.0858L755.133 87.6633L772.894 86.626L772.623 88.9774L772.24 109.703L772.542 111.889L773.799 114.872L775.056 116.94L775.9 118.813L776 121.295L774.895 125.661L772.905 131.065L770.663 135.649L768.793 137.573L767.537 138.238L761.807 143.711L760.651 145.35L759.987 147.48L759.896 150.44L758.207 148.089L752.658 144.998L751.473 144.009L750.096 142.376L746.991 141.103L741.18 139.996L738.406 140.549L733.763 142.944L731.491 143.484L723.44 143.11L720.877 143.484L716.132 146.243L712.764 150.932L712.201 152.411L705.295 170.449L703.627 173.202L701.476 174.816L693.054 177.091L691.647 178.064L690.812 178.353H689.596V179.511L693.888 182.73L694.732 184.025L694.582 186.01L692.21 193.379L690.511 201.569L689.637 203.144L688.552 204.259L687.586 205.462L687.074 207.345L687.304 211.126L689.154 218.848L689.596 222.322L688.913 233.726L689.596 236.25L687.124 238.155L687.074 240.925L688.069 244.557L688.752 248.995V257.032L688.45 260.185L688.148 261.355L681.827 261.725L675.192 260.576L669.734 260.426L668.438 260.686L667.564 261.698L666.75 264.037L666.358 265.856L666.499 267.407L667.384 268.672L669.284 269.663L665.977 270.237L660.599 272.581L657.825 273.107L655.563 275.055L655.805 279.46L657.172 284.149L658.248 286.954L656.258 286.005L644.749 285.704L641.12 287.793L639.521 291.244L638.647 295.383L637.249 299.548L635.038 298.43L633.882 300.012L633.942 302.505L635.46 304.113L635.018 305.27L634.898 306.135L635.461 308.689L635.803 307.437L635.983 307.218L635.923 307.197L635.46 306.503L636.325 303.07L640.185 307.178L641.451 307.545L642.958 306.115L643.954 304.174L645.19 303.377L647.361 305.36L648.477 303.636L649.532 303.847L650.537 304.807L651.502 305.359L653.241 304.862L654.457 304.072L655.683 303.608L657.402 304.113L657.341 304.971L657.211 305.134L656.969 305.094L656.557 305.359L657.29 308.254L658.497 310.323L660.416 310.731L663.372 308.689L663.603 310.262L664.286 311.1L665.371 311.29L666.748 310.963V312.216L666.034 312.427L664.155 313.36L665.07 314.993L665.592 315.408L666.749 315.646L665.573 317.306L665.432 319.592L666.175 321.918L667.593 323.631L669.392 324.407L670.839 324.223L672.368 323.733L674.338 323.63V324.671L673.614 325.589L673.594 326.507L674.177 327.411L675.253 328.301L672.178 330.87L670.72 333.968L671.303 337.065L674.339 339.591L673.796 340.039L673.745 340.209L673.504 340.834L677.957 343.753L678.641 344.825L679.223 346.046L680.63 347.653L682.299 349.139L683.695 349.939L683.444 350.502L683.102 351.804L682.85 352.312L686.519 354.448L687.463 355.594L689.594 360.182L696.238 364.429L697.052 366.041L698.076 367.577L699.795 368.126L699.282 369.954L699.884 371.511L701.07 372.796L702.316 373.812L702.386 374.644L702.206 374.868L701.873 374.881L701.471 375.051L702.878 376.559L703.803 378.71L703.964 381.017L703.159 382.998L703.521 384.675L699.103 383.684L697.24 383.084L691.202 383.788L689.517 383.265L686.249 381.659L683.198 380.873L682.062 380.822L679.712 381.2L679.208 380.999L678.716 380.926L678.217 380.999L677.733 381.2L677.356 382.871L677.349 385.12L677.081 386.755L679.002 387.948L678.638 388.956L677.093 389.573L675.485 389.638L673.8 389.067L667.354 385.501L662.796 385.334L653.19 387.845L652.89 389.502L652.457 390.313L651.806 390.317L650.874 389.604L649.866 390.934L648.608 391.771L645.959 392.706L646.125 393.101L646.47 393.349L646.846 393.559L647.185 393.791L646.789 394.152L646.023 394.551L645.729 394.919L647.44 395.657L645.423 396.531L643.79 395.386L640.86 391.217L638.99 389.613L629.913 384.485L626.952 381.892L624.233 378.671L618.999 370.568L615.642 367.215L611.698 364.858L607.357 363.83L604.663 364.213L603.106 365.46L600.362 369.162L600.042 369.829L599.94 370.414L599.404 370.629L596.41 369.838L593.646 369.714L592.267 369.838L590.365 368.295L588.271 367.078L586.024 366.365L583.85 366.329L583.681 366.326L580.726 367.831L577.982 373.002L575.595 374.657L573.878 375.383L572.774 377.089L571.766 379.094L570.387 380.748L569.315 381.031L566.998 380.653L565.716 381.202L564.388 382.542L563.251 382.524L562.09 382.09L560.737 382.129L559.409 382.966L557.912 384.236L556.652 385.306L555.63 385.825L554.271 385.456L551.985 383.452L550.83 382.872L549.349 383.314L546.681 386.018L545.417 386.936L543.049 387.211L531.439 385.263L529.231 385.533L527.226 386.971L523.665 390.803L522.759 391.485L521.993 392.261L521.482 393.346L521.699 393.998L523.193 394.941L523.563 395.507L523.461 396.438L522.937 397.897L522.797 398.767L522.709 399.772L522.606 400.966L522.083 403.978L521.061 407.012L519.401 409.29L513.503 411.106L500.802 410.553L495.696 415.04L493.948 419.028L493.488 422.622L494.343 425.945L495.607 427.704Z" stroke="url(#paint0_linear_7_9)" stroke-opacity="0.6" stroke-width="5" stroke-linecap="round" stroke-linejoin="round"/>
<defs>
<linearGradient id="paint0_linear_7_9" x1="389.5" y1="3" x2="389.5" y2="506" gradientUnits="userSpaceOnUse">
<stop offset="0.28416" stop-color="white"/>
<stop offset="0.443438" stop-color="#026800"/>
<stop offset="0.635583" stop-color="#225B00"/>
<stop offset="0.840368" stop-color="#FF0000"/>
</linearGradient>
</defs>
</svg>
