<svg width="649" height="615" viewBox="0 0 649 615" fill="none" xmlns="http://www.w3.org/2000/svg">
<path id="Vector" d="M305.227 561.259L305.499 559.609L305.313 557.566L304.392 553.348L304.106 552.452L303.35 550.723L303.051 549.772L302.62 546.361L302.355 545.587L301.393 544.87L300.391 545.044L299.389 545.479L298.454 545.556L297.645 545.069L296.385 543.578L295.549 542.891L294.634 542.615L292.658 542.44L291.802 541.84L291.397 541.097L290.754 538.21L289.241 535.089L288.126 532.07L288.1 529.403L289.865 527.351L288.16 526.431L287.881 525.212L288.04 523.684L287.642 521.877L286.693 521.301L284.166 522.923L282.674 522.928L277.905 520.287L275.424 519.402L272.838 519.721H272.977L273.09 519.777L273.176 519.89L273.249 520.06L271.452 521.63L270.524 521.815L269.25 520.77L268.892 520.095L268.448 518.55L268.176 518.004L267.413 517.437L265.907 517.122L265.152 516.782L263.129 515.035L262.154 514.493L258.054 513.715L257.219 512.745L257.636 510.904L253.888 508.447L252.979 508.22L251.912 507.952L252.197 510.214L252.536 510.358L253.047 510.198L253.597 510.214L254.048 510.905L254.161 511.901L253.836 512.339L251.747 512.963L249.174 513.041L248.006 513.345L246.115 515.037L243.78 515.749L241.446 515.254L237.288 511.107L236.565 510.105L236.06 508.913L235.702 507.679L235.264 506.574L234.554 505.722L233.951 505.117L233.752 504.543L233.958 503.995L234.554 503.483L234.58 503.411L234.594 503.333L234.58 503.24L234.554 503.142L233.652 502.951L231.908 502.082L231.065 501.854L230.381 502.015L229.838 502.33L229.188 502.449L228.186 501.994L225.069 498.038L224.936 497.308L225.407 496.299L226.11 495.942L229.208 495.822L230.919 495.149L233.652 493.508L234.951 492.379L235.555 490.861L234.553 489.006L233.876 488.331L233.731 487.321L233.857 486.403L234.553 484.525L234.699 484.208L234.745 483.907L234.712 483.637L234.553 483.41L233.372 481.81L233.013 481.473L231.926 481.068L231.508 481.338L231.342 482.024L230.984 482.844L229.081 485.485L227.98 486.387L226.494 486.776L220.756 485.76L217.699 486.04L215.815 488.331L215.483 488.555L215.145 488.627L214.8 488.549L214.475 488.331L213.878 486.465L212.478 485.329L211.059 485.439L210.363 487.275L209.506 486.626L209.062 485.594L208.935 484.323L209.016 483.016L208.723 482.762L208.458 482.471L208.233 482.134L208.053 481.755L209.234 481.278L207.908 480.712L204.897 480.8L203.372 480.359L201.11 478.926L200.479 478.24L200.094 477.367L199.696 476.068L199.477 474.976L199.616 474.695L198.867 474.466L196.91 474.872L196.027 474.862L195.205 474.426L193.712 473.167L193.01 472.735L186.417 470.883L184.931 471.06L183.982 470.49L182.172 469.4L180.706 469.213L178.962 470.274L178.969 471.68L181.025 474.721L181.755 476.562L182.233 478.702L182.863 480.65L184.063 481.891L185.629 482.81L186.797 484.096L187.474 485.896L187.566 488.334L188.402 489.443L188.529 490.765L188.117 491.62L187.344 491.328L186.662 490.302L186.363 489.695L185.978 489.431L185.036 489.415L184.857 489.69L184.87 490.903L184.711 491.27L184.133 491.312L182.947 490.887L182.383 490.907L181.613 491.441L180.545 492.927L179.941 493.466L179.223 493.65L178.443 493.849L177.156 493.762L175.882 493.948L174.443 495.185L173.289 496.934L172.593 498.29L171.81 499.402L170.384 500.436L168.407 503.139L165.8 503.33L163.107 501.929L160.898 499.886L159.77 498.407L159.167 497.155L158.437 493.739L157.741 491.843L155.797 489.812L154.981 488.335L154.053 487.069L152.422 484.092L151.5 482.789L150.074 481.788L147.215 480.739L146.075 479.218L145.909 478.34L145.962 477.426L145.916 476.491L145.464 475.556L144.854 475.363H141.929L141.18 475.608L140.722 476.008L140.251 476.112L139.429 475.446L139.124 474.865L138.295 472.269L136.212 471.901L135.609 470.101L136.113 468.503L137.394 468.794L137.274 468.487L136.963 467.368L137.354 467.332L137.944 466.958L138.296 466.817L139.284 465.989L140.411 465.317L141.374 464.489L141.871 463.186L142.88 462.858L144.936 463.431L146.037 463.186L146.641 462.337L147.961 461.029L148.511 460.258L148.332 460.315L148.325 459.721L148.411 458.944L148.51 458.433L148.789 457.849L148.968 457.567V457.233L148.724 456.47L150.74 455.64L150.156 453.714L144.69 447.909L142.721 446.791L140.625 446.252L138.296 446.204L137.467 446.382L136.997 447.397L136.532 448.689L135.749 449.677L134.668 449.927L133.693 449.467L131.664 447.909L128.957 447.632L124.977 451.495L122.252 451.997L122.119 451.693L122.072 451.374L122.125 451.05L122.252 450.721L123.173 449.969L123.319 448.767L122.967 447.37L122.41 446L121.574 444.41L120.712 443.573L119.65 443.421L115.85 444.854L114.072 444.906L113.66 444.76L110.417 439.227L110.211 438.609L110.072 437.917L108.481 437.765L103.148 439.059L102.471 438.844L102 438.383L101.151 437.078L100.421 436.591L87.5797 432.082L84.9071 432.308L84.3104 433.052L83.7 434.133L82.9905 434.883L82.8833 434.849L82.0823 434.595L81.6705 433.756L81.7236 432.79L81.9029 431.773L81.8826 430.786L81.1132 428.882L80.1385 428.073L78.9777 427.559L77.6972 426.529L77.0136 425.426L76.2577 423.745L75.6609 421.953L75.468 420.507L75.9193 418.635L76.4766 417.567L76.5431 416.583L75.5154 414.914L73.804 414.061L70.1489 414.004L69.5453 412.509L69.2464 410.96L68.4973 410.581L67.6681 411.166L67.0905 412.5V412.51L66.8784 413.547L66.1553 413.695L65.2528 413.247L64.4969 412.5L63.9532 411.494L60.703 410.777L59.4824 409.652L59.303 410.492L59.004 410.961L58.0756 411.641L57.7112 411.72L57.3468 411.894L57.0219 412.162L56.7297 412.51H56.7229L56.9948 413.663L58.0361 414.49L59.0108 415.917L59.0841 418.874L58.8856 419.389L58.2549 420.104L58.0756 420.451L58.0158 421.02L58.0553 421.409L58.1286 421.698L58.2087 425.229L58.0756 426.106L50.7461 425.565L48.4244 426.217L47.0582 426.169L47.065 424.278L47.9731 422.775L50.2553 420.23L53.492 412.51L56.3574 405.228L56.5503 404.056L56.5639 402.092L56.6767 401.086L57.0219 400.379L57.5194 399.907L57.9436 399.226L58.0767 397.913L58.15 395.328L58.6735 392.457L59.5422 389.729L60.6432 387.561L60.3781 387.274L60.1457 386.956L60.4774 383.981L59.5422 381.969L58.0891 380.254L56.9023 378.162L56.7229 377.454L56.4443 375.612V375.516L56.0596 371.16L55.8204 368.447L56.3642 367.161L55.7009 365.743L54.5141 364.492L53.5123 363.705L52.0592 363.008L49.0482 362.114L47.5828 361.272V361.262L46.2301 360.294L42.038 358.879L40.6188 357.393L40.409 356.301L40.2668 355.563L40.7903 353.557L42.0369 351.576L42.7927 349.507L42.6867 346.787L42.0561 344.164L41.2269 342.377L38.1098 339.775L36.6636 338.073L36.0002 335.44L35.7486 332.706L34.8597 331.512L33.6988 330.705L32.644 329.089L32.4511 326.89L33.2938 325.09L36.9749 321.33L38.155 319.743L39.1432 317.871L39.687 315.837L39.9126 309.479L40.2578 308.467L41.6443 305.943L41.9162 304.956L42.0357 303.999L42.2411 303.064L42.7318 302.178L43.913 300.703L39.7411 297.568L39.0981 296.07L39.4895 293.359L40.18 291.456L40.4248 289.962L39.4963 288.505V287.855L40.7497 286.194L40.77 284.05L39.775 282.21L37.9778 281.421L36.1536 280.996L33.9786 279.875L32.5391 278.252L32.9238 276.344L31.5768 273.29L30.0516 268.706L29.6928 264.529L33.0163 261.59L34.5686 259.117L35.6302 256.645L35.3312 255.521L34.1377 254.426L34.6352 251.976L36.4323 248.189L34.4355 246.541L34.0666 246.125L30.3426 241.926L26.5024 240.399L24.658 237.869L23.4373 237.297L22.7672 236.648L20.5718 232.304L19.5768 231.136L12.7584 226.092L11.0075 225.152L8.91143 222.667L7.62423 222.097L6.19826 221.993L4.85127 221.57L3.73667 220.692L3 219.198L4.70461 217.713L5.36796 216.425L5.63307 214.414L5.48754 213.084L4.70461 209.308L4.31992 208.238V207.574L7.42454 205.259L11.3313 203.21L15.1117 200.187L17.0814 198.117L17.9433 196.188L18.1227 195.294L20.0461 189.245L19.913 187.697L19.5283 186.183L19.2959 184.444L19.4753 183.019L19.9333 181.71L20.5696 180.755L21.2465 180.389L21.7169 179.683L23.3888 176.377L22.5528 175.601L22.3013 175.002L21.3198 174.167L20.9283 173.485L20.7298 172.432L20.6903 170.485L20.591 169.575L20.1578 167.556L18.8142 161.29L18.1441 155.716L16.7971 153.439L16.127 151.189L14.5679 148.77L14.1031 146.545L14.0569 144.152L14.2295 140.199L14.1099 139.132L12.7629 134.929L11.7949 132.808L12.0601 131.125L11.9811 128.08L11.9833 128.068L12.6117 127.997L13.7658 127.494L14.6119 126.705L14.6954 125.823L13.5672 125.033L14.1945 124.658L14.4032 124.287L14.1945 123.916L13.5672 123.549L13.9271 122.742L14.5589 123.307L15.4569 123.757L16.2511 124.357L16.9979 126.448L17.9061 127.149L19.6603 127.996L20.9453 129.384L21.6503 129.975L24.4808 130.46L27.9273 131.699L29.1231 132.637L30.1001 134.047L32.2097 138.106L32.9464 139.064L33.2859 138.747L33.3593 137.014L33.6514 136.006L34.1952 135.346L35.0774 134.645L35.03 134.236L35.0142 133.809L35.0774 133.175L34.3881 132.972L32.7433 132.822L32.0066 132.434L30.0166 127.625L30.434 125.23L32.0066 120.523L32.7433 121.178L33.3807 120.991L34.0801 120.576L35.0774 120.523L34.6228 117.784L34.8574 115.601L35.3008 113.66L35.5151 111.616H35.0763L34.9195 112.918L34.4186 113.78L32.8832 115.332L33.2859 116.076L32.7219 115.841L32.2729 115.549L31.9119 115.142L31.5678 114.589L31.8972 114.271L32.4771 113.497L32.8843 113.104L32.0021 111.259L30.4769 110.392L23.3583 109.647L22.3554 108.536L23.1654 106.415L22.9567 106.198L22.9048 106.167L22.8834 106.078L22.7638 105.67L22.1321 106.759L21.63 106.915L21.0874 106.622L20.3191 106.414L19.7607 106.635L19.3219 107.175L18.8932 107.875L18.3449 108.584L20.2616 108.956L21.3063 109.434L21.85 110.133L21.7248 111.453L21.0558 112.412L20.2413 112.788L19.6614 112.358L17.9072 113.469L17.0351 113.752L16.1157 113.845V114.588L16.9979 114.933L16.9505 115.159L16.1146 115.331L15.5088 115.239L14.4957 114.708L13.7432 114.588L12.6726 113.867L9.58605 109.389L8.08225 108.698L7.93334 108.716L7.41552 107.017L6.29415 105.633L6.90448 105.453L7.4347 105.088L8.52448 102.149L9.58492 102.632L10.2844 103.218L12.2485 103.962L18.5987 104.49L21.1472 103.962L23.6381 102.632L28.2443 99.2299L45.2227 91.658L59.867 87.8112L77.7232 80.255L89.2866 77.157L101.947 73.7263L114.392 68.0683L124.733 66.7724L131.835 64.3849L131.025 65.2071L127.845 66.6371L129.239 67.6296L134.896 66.6371V65.9582H134.457V65.1439H137.518L137.486 64.6071L137.418 64.509L137.298 64.5451L137.078 64.3838L137.203 62.6121L135.725 62.541L132.231 63.6417L134.44 62.5455L137.098 60.8009L141.067 56.1262L140.263 57.766L138.826 59.2705L138.268 60.0892L138.853 59.875L140.018 59.6336L141.036 59.222L141.93 58.1472L144.181 57.0815L145.005 56.1274L144.243 54.5282L142.968 54.4876L142.404 55.1733L141.464 56.1274L144.185 51.4211L151.617 41.8271V42.5061L151.272 43.5842L151.92 43.8583L152.954 43.4624L153.774 42.5049L154.181 41.0219L153.806 40.5674L152.975 40.9181L152.02 41.826L153.336 39.187L155.567 36.9472L159.948 34.2067L173.355 32.2207L178.563 30.14L181.294 29.6753L183.717 28.8013L189.87 22.0358L209.225 12.9357L233.501 8.32875L244.395 4.57776L261.535 3H272.095L273.547 3.53908L275.877 5.58261L276.733 6.03147L278.08 6.34386L300 19.4836L303.996 24.6838L304.643 25.9018L305.301 27.6239L305.364 29.1295L304.23 29.6787L303.948 29.2998L303.635 28.4934L303.243 27.695L302.073 26.8649L301.29 24.7853L300.235 23.432L297.18 18.2442L296.585 17.96L294.334 17.4942L293.764 17.2551L293.153 16.2108L291.336 15.5781L287.502 12.938L283.732 11.1189L283.126 10.2505L281.043 8.63889L280.494 8.38063L279.711 8.73362L279.304 9.30428L278.395 12.4812L278.27 13.2143V14.8383L278.615 15.2499L280.15 15.9412L280.495 16.3574L281.268 17.713L282.208 19.7633L282.171 20.6125L281.926 21.3489L281.947 22.0752L282.688 22.8647L282.302 25.03L283.033 25.9503L284.254 25.6931L285.319 24.3127L284.944 26.1533L285.46 27.6228L286.259 28.8667L287.878 33.8989L288.38 34.9657L288.129 37.5032L288.181 41.8734L288.599 46.0101L289.497 47.8551L290.504 48.1923L292.463 49.7001L293.466 50.0452L294.327 50.1355L295.398 50.467L296.317 51.0681L296.709 52.0279L297.79 53.5481L308.611 57.0566L311.002 57.236L313.003 56.1296L313.551 56.689L314.303 57.1006L316.069 57.6341L340.14 54.0319L345.451 51.4538L347.974 50.8618L350.011 49.9201L353.96 45.7913L355.052 45.3108L356.413 46.4228L359.59 47.5235L364.594 47.7908L377.843 48.4979L402.703 49.831L421.235 50.8189L439.767 51.8068L462.729 53.0248L490.539 54.5101L508.391 55.4575L526.243 56.4048L541.213 57.2066L553.279 57.8495L557.696 56.3822L558.903 55.3977L560.528 52.3775L560.615 52.2162L562.213 51.464L563.58 51.6523L567.426 53.6451L568.122 53.7365L569.581 53.4286L570.238 53.582L570.921 54.2767L571.286 55.136L571.571 55.9954L571.976 56.7014L572.699 57.1965L574.901 57.4581L575.307 58.0671L575.074 59.1137L574.703 60.3588L574.696 61.5238L575.85 63.1433L577.322 63.1376L578.854 62.4846L580.147 62.1948L581.315 62.7632L585.295 66.1082L587.742 67.6126L592.916 69.5761L594.197 70.6723L595.383 71.6862L596 72.6504L597.168 74.8891L597.758 75.7394L598.421 76.1928L599.801 76.5728L600.391 76.9236L601.452 78.498L602.348 80.6881L603.051 83.1376L603.541 85.4733L604.477 90.5753L604.497 93.0418L603.541 94.7177L602.765 95.3661L602.42 95.7947L602.109 96.2796L602.069 97.4469L602.341 98.4393L602.859 99.2288L603.543 99.7927L603.921 100.283L604.107 100.83L604.067 101.427L603.802 102.063L603.882 105.256L604.546 107.917L605.395 110.425L606.052 113.162L606.642 118.94L607.318 121.173L608.878 123.471H608.884L609.03 130.127L610.562 137.677L616.007 154.467L619.032 160.777L620.319 164.179L622.886 174.332L624.019 177.386L625.174 178.94L625.803 180.455L626.3 182.013L627.063 183.67L628.21 184.934L629.311 185.791L629.988 187.079L629.843 189.671L629.265 191.213L628.489 192.499L627.872 193.971L627.786 196.054L628.337 197.863L630.281 200.369L631.017 201.948L631.123 202.767L630.971 204.048L630.978 204.728L631.521 207.695L631.547 208.548L631.356 209.205L630.646 210.641L630.467 211.48L630.527 212.621L630.745 213.258L631.004 213.794L631.17 214.607L631.706 227.481L631.84 230.665L630.957 235.191L628.404 238.347L619.881 244.176L609.156 247.242L603.472 250.563L597.814 255.285L590 267.34L587.427 270.498L586.246 272.344L583.268 278.443L583.466 278.491L583.938 278.889L584.414 279.291L585.117 280.323L585.322 281.701L584.811 283.564L586.257 284.492L590.874 285.743L591.862 285.356L592.705 286.209L596.691 287.71L598.037 287.853V288.503L597.567 289.468L597.753 289.642L598.675 289.285L599.477 289.642L600.053 290.239L600.664 290.356L601.546 289.285L601.799 289.75L602.435 290.286L602.859 290.781L603.933 289.734L604.179 290.52L603.999 291.772L603.741 292.14L605.526 295.714L606.772 296.111L609.817 296.016L611.024 296.75L611.449 297.56L611.774 298.41L612.158 299.071L612.762 299.341L613.545 299.889L613.803 301.094L613.87 302.296L614.4 303.596L615.308 307.535L616.045 309.315L615.036 310.066L614.193 311.398L612.979 314.287L612.562 316.201L612.516 319.568L612.098 320.745L612.35 320.847L612.463 320.853L612.509 320.976L612.542 321.454L611.772 321.886L611.507 324.138L610.791 325L611.799 326.88L612.981 328.481L612.264 330.894L611.03 332.121L609.684 332.948L608.597 334.207L608.338 334.951L608.08 336.062L607.716 338.45L607.948 338.984L608.379 339.712L608.524 340.357L607.934 340.64L607.683 340.928L607.888 341.594L608.28 342.308L608.598 342.757L607.775 343.781L607.384 344.021L606.807 344.101V344.873L607.537 345.67L607.624 346.671L607.286 349.461L607.511 350.945L608.069 352.383L609.474 354.81L609.037 354.853L608.599 354.81L609.395 356.423L610.416 356.812L611.292 357.34L611.543 358.72L611.663 359.356L612.094 360.8L613.102 361.5L614.263 361.934L615.171 362.555L614.17 364.614L614.269 365.256L616.883 369.12L617.406 370.352L616.663 370.701L616.205 371.418L616.126 372.476L616.524 373.865L615.35 374.324L614.209 375.538L613.327 377.048L612.982 378.417L613.399 380.599L614.408 381.121L615.648 381.145L616.742 381.861L620.297 389.667L621.743 391.431L625.007 393.502L628.058 396.624L628.774 397.865L627.713 398.418L627.474 399.359L628.423 401.381L630.107 403.998L630.664 405.365L631.42 409.636V410.269L631.148 411.069L631.618 411.486L632.434 411.817L633.217 412.355L633.927 413.44L634.106 414.277L634.173 415.193L634.525 416.529L635.487 418.128L639.825 422.145L645.171 425.104L646 426.375L645.21 428.138L643.26 428.553L641.131 428.569L639.825 429.152L638.127 428.191L636.356 428.428L634.883 429.551L634.094 431.294L634.213 433.235L635.162 434.525L636.68 435.233L638.471 435.453V436.082L637.635 437.859L638.537 439.409L640.288 440.509L642.013 440.933L641.622 443.242L642.126 445.371L643.754 449.303L643.771 449.344L642.285 451.92L642.935 456.723L643.393 458.058L643.725 458.34L643.644 458.565L642.842 459.723L641.628 461.021L637.496 463.19L637.317 464.404L637.416 466.348L637.31 467.655L637.018 468.743L635.612 472.057L632.236 473.462L620.608 473.607L618.392 474.308L617.284 474.876L616.416 475.733L615.713 477.209L614.906 479.88L614.865 480.02L613.976 481.318L608.915 486.828L607.058 488.331H607.051L607.044 488.337H607.038L603.541 491.027L600.643 493.28L585.979 509.239L584.048 512.232L581.701 514.078L579.147 516.908L572.188 527.136L569.502 529.901L569.164 530.723L568.639 532.726L568.34 533.436L567.783 533.995L566.649 534.416L566.085 534.79L565.461 535.555L561.508 542.735L560.427 543.833L559.725 544.135L558.345 544.411L557.629 545.031L557.164 545.887L556.056 549.052L551.188 555.615L549.59 559.432L550.824 562.965L551.255 564.41L551.653 568.608L551.892 569.729L552.071 570.275L552.907 571.6L554.294 573.067L554.653 573.82L554.938 575.389L555.807 584.412L555.562 585.84L554.481 588.831L553.573 592.308L552.558 594.433L552.212 595.625L552.604 596.147L552.903 595.949L553.752 594.879L554.761 595.589L554.681 595.629L554.435 595.69L556.517 597.16L558.395 599.637L559.576 600.514L562.455 602.129L563.231 603.121L563.238 603.951L562.654 605.869L562.574 607.2L562.853 608.12L563.894 609.915L563.976 610.122L564.1 610.44L563.348 612L562.049 611.44L560.629 610.156L559.482 609.555L558.773 609.327L557.586 607.658L556.936 607.041L556.24 606.96L554.794 607.4L552.472 607.227L551.099 607.359L549.719 607.192L548.141 606.11L545.734 603.442L544.446 603.043L543.094 604.349L540.871 603.251L535.85 603.033L533.496 602.309L530.245 599.032L528.879 598.489L525.331 598.626L522.32 597.703L521.843 597.293L521.697 596.675L521.877 596.041L521.87 595.352L521.167 594.566L520.637 594.464L519.098 594.651L518.455 594.611L517.713 594.282L515.624 592.933L511.081 592.065L509.263 590.731L508.839 587.604L508.03 584.134L506.186 581.145L503.871 578.958L500.415 577.228L498.061 575.055L496.886 574.383L495.592 574.622L494.485 575.64L493.576 576.724L492.906 577.172L491.918 576.368L489.762 573.038L488.681 571.927L488.045 571.738L487.05 571.963L486.566 571.896L485.916 571.443L484.723 570.276L484.073 569.837L482.873 569.526L478.277 570.046L477.304 570.441L476.134 570.917L475.192 570.637L472.811 571.161L471.749 571.171L465.495 569.397L461.9 567.475L461.011 567.261L459.85 568.066L457.846 571.042L456.745 572.077L455.365 572.306L454.384 571.628L453.469 570.604L452.308 569.804L451.313 569.713L448.706 570.243L447.725 570.712L446.425 572.169L447.208 573.066L448.687 573.967L449.47 575.453L448.945 576.354L447.758 576.593L446.406 576.609L445.397 576.824L444.077 578.111L441.981 581.189L440.595 582.394L439.089 582.937L437.907 582.714L436.866 581.956L435.818 580.863L434.618 579.968L433.609 579.815L432.515 579.882L431.075 579.659L430.061 578.916L424.364 572.089L423.362 571.911L420.935 572.303L419.548 572.095L418.958 572.135L418.302 572.507L417.281 573.776L416.544 574.469L415.026 575.013L413.62 574.667L408.195 571.892L407.193 572.121L407.206 573.817L403.89 573.944L401.263 572.951L400.501 572.966L399.844 573.46L399.605 574.072L399.473 574.978L399.141 576.384L398.683 577.747L398.365 578.185L393.41 578.622L392.436 579.172L391.036 580.845L390.405 581.435L388.993 581.267L388.834 581.115L388.469 581.603L387.242 584.363L386.877 585.531L386.433 586.623L385.636 587.588L385.272 591.02L384.609 593.475L383.355 594.444L381.227 593.4L377.917 590.279L376.132 589.35L374.075 589.578L372.914 590.44L371.662 591.737L370.759 592.672L369.333 593.2L366.375 592.977L364.756 592.383L363.927 591.236L364.185 589.942L366.613 585.971L366.898 585.737L367.31 585.62L367.681 585.401L367.833 584.848L367.714 584.421L367.69 584.397L367.203 583.882L367.186 583.846L367.083 583.623L367.076 583.618L366.201 582.968L365.975 582.637L365.976 582.629L366.016 582.22L366.507 581.482L366.606 581.081L366.228 576.319L365.903 574.681L365.306 572.816L365.293 572.806L364.715 572.368L362.566 573.234L361.266 573.366L359.866 573.213L356.179 571.953L356.182 571.923L356.318 570.763L356.279 569.219L356.378 568.683L356.677 568.061L354.111 568.035L352.77 567.673L351.669 566.821L351.338 566.117L350.303 562.974L349.136 557.991L348.359 556.002L346.853 555.001L346.369 554.484L345.289 552.572L344.746 552.348L344.393 552.203L344.022 552.366L343.777 552.857L338.212 559.007L337.728 559.425L336.819 559.793L336.155 559.9L334.179 559.88L332.945 560.146L331.897 560.661L330.961 561.555L330.086 562.959L329.058 566.163L329.171 566.274L329.376 566.57L329.503 567.039L329.35 567.696L329.065 567.911L328.275 567.931L328.089 567.972L327.638 569.893L327.472 571.121L327.007 571.911L325.031 572.706L323.419 573.026L322.755 572.98L322.138 572.664L320.865 571.732L320.275 571.527L318.875 571.859L316.394 573.306L314.768 573.433L313.515 573.199L313.156 572.088L313.421 568.847L313.255 567.383L312.944 566.046L312.877 564.638L313.441 562.974L311.585 561.836L305.227 561.259Z" stroke="url(#paint0_linear_7_14)" stroke-opacity="0.6" stroke-width="5" stroke-linecap="round" stroke-linejoin="round"/>
<defs>
<linearGradient id="paint0_linear_7_14" x1="324.5" y1="3" x2="324.5" y2="612" gradientUnits="userSpaceOnUse">
<stop offset="0.463542" stop-color="white"/>
<stop offset="1" stop-color="#FF0000"/>
</linearGradient>
</defs>
</svg>
